► Sengoku Basara (1 Temporada)◄


Sinopsis:
En el período Sengoku, Japón estaba dividida en provincias semi-independientes, gobernadas por señores feudales, también llamados daimyos, que se enfrentaban en una lucha infinita por el poder. Daimyos ambiciosos de todas las partes del archipiélago ponían de manifiesto su grito de guerra. Algunos eran Takeda Shingen de Kai, Sanada Yukimura, Uesugi Kenshin de Echigo, Azai Nagamasa de Omi o Tokugawa Ieyasu de Mikawa, entre otros.

Eran días de guerra y caos. Mientras la guerra se propagaba por todo el país, el mapa del poder sufría cambios muy rápidos y drásticos. En este conflicto sin fin, finalmente un hombre parecía estar estableciendo un control total sobre el país. Era el señor de Owari, el sexto Rey Demonio Divino. Su nombre era Oda Nobunaga. Pero ahora, un joven general vestido de azul celeste hace su aparición en el confuso escenario, liderando una poderosa caballería de las provincias del norte. Es conocido como Date Masamune, el Dragón Tuerto. Va en busca de la cabeza de Oda Nobunaga y la supremacía final.


→ Titulo: Sengoku Basara (戦国 BASARA)
→ Categoria: Serie
→ Genero: Accion, Comedia, Samurai, Shonen
→ Estudio: Production I.G
→ Episodios: 12
→ Año: 2009
→ Fansub: Athena no Seinto
→ Idioma: Japones
→ Subtitulos: Español
→ Formato: MP4
→ Resolución: 848x480
→ Duración: 24 Min (c/u)
→ Aspecto: 16:9
→ Peso Aprox: 70 Mb
→ Servidor: Torrent (P2P)





►General
 Format                                   : MPEG-4
 Format profile                           : Base Media
 Codec ID                                 : isom
 File size                                : 70.8 MiB
 Duration                                 : 24mn 0s
 Overall bit rate mode                    : Variable
 Overall bit rate                         : 412 Kbps



 ▼Video
  ID                                       : 1
  Format                                   : AVC
  Format/Info                              : Advanced Video Codec
  Format profile                           : High@L5.1
  Format settings, CABAC                   : Yes
  Format settings, ReFrames                : 3 frames
  Codec ID                                 : avc1
  Codec ID/Info                            : Advanced Video Coding
  Duration                                 : 23mn 59s
  Duration_LastFrame                       : 42ms
  Bit rate                                 : 372 Kbps
  Maximum bit rate                         : 1 963 Kbps
  Width                                    : 848 pixels
  Height                                   : 480 pixels
  Display aspect ratio                     : 16:9
  Original display aspect ratio            : 16:9
  Frame rate mode                          : Constant
  Frame rate                               : 23.976 fps
  Color space                              : YUV
  Chroma subsampling                       : 4:2:0
  Bit depth                                : 8 bits
  Scan type                                : Progressive
  Bits/(Pixel*Frame)                       : 0.038
  Stream size                              : 63.9 MiB (90%)
  Title                                    : Imported with GPAC 0.4.6-DEV
  Writing library                          : x264 core 114 r1900 60ef1f8



 ▼Audio
  ID                                       : 2
  Format                                   : AAC
  Format/Info                              : Advanced Audio Codec
  Format profile                           : HE-AAC / LC
  Codec ID                                 : 40
  Duration                                 : 24mn 0s
  Bit rate mode                            : Variable
  Bit rate                                 : 37.7 Kbps
  Maximum bit rate                         : 51.1 Kbps
  Channel(s)                               : 2 channels
  Channel positions                        : Front: L R
  Sampling rate                            : 48.0 KHz / 24.0 KHz
  Compression mode                         : Lossy
  Stream size                              : 6.48 MiB (9%)



>===========► ENJOY!!	
